<svg width="32" height="32" viewBox="0 0 32 32" fill="none" xmlns="http://www.w3.org/2000/svg">
<rect width="32" height="32" rx="16" fill="#F2F2F2"/>
<path fill-rule="evenodd" clip-rule="evenodd" d="M19 13.0004C19 14.6581 17.6575 16.0008 16 16.0008C14.3425 16.0008 13 14.6581 13 13.0004C13 11.3427 14.3425 10 16 10C17.6575 10 19 11.3427 19 13.0004ZM10 20.5004C10 18.5051 13.9975 17.5 16 17.5C18.0025 17.5 22 18.5051 22 20.5004V21.2505C22 21.6631 21.6625 22.0006 21.25 22.0006H10.75C10.3375 22.0006 10 21.6631 10 21.2505V20.5004Z" fill="#BFBFBF"/>
</svg>
